<svg id="Layer_1" data-name="Layer 1" xmlns="http://www.w3.org/2000/svg" viewBox="0 0 1041.22 1281.98"><defs><style>.cls-1{fill:#006cb7;}.cls-2,.cls-6{fill:#eb2027;}.cls-3,.cls-7{fill:#086db5;}.cls-4{fill:#fcfcfc;}.cls-5{fill:#fff;stroke:#3232ed;stroke-miterlimit:10;stroke-width:0.28px;}.cls-6,.cls-7{fill-rule:evenodd;}</style></defs><title>logo MTAC</title><polygon class="cls-1" points="517.67 1005.89 29.87 513.72 517.67 26.14 1005.47 514.35 517.67 1005.89"/><path class="cls-2" d="M82.56,1187.58l-1.14-40.07-24.59,40.07Zm.62,16.59H49.08l-12.41,22H18.5l58.12-99.57H96.26l4.42,99.57H83.91Z"/><path class="cls-2" d="M403,1154.73h16.12L407.8,1195.6a73.35,73.35,0,0,0-2.23,9.18,6.8,6.8,0,0,0,1.42,5.12,5.65,5.65,0,0,0,4.68,2.16,11.11,11.11,0,0,0,4.3-1,19.55,19.55,0,0,0,4.52-2.88,26.39,26.39,0,0,0,4.35-4.36,32.86,32.86,0,0,0,3.86-6.49,71.29,71.29,0,0,0,3.24-9.77l9.1-32.88h16.12l-19.08,69h-15l2.59-9.37q-11,11-22.54,11-7.35,0-11.08-4.87c-2.51-3.26-3.49-7.61-3-13.08a105.61,105.61,0,0,1,3.29-14.24Zm-41.72,36.85a35.4,35.4,0,0,1-4,.84c-8.19,1.13-13.62,2.77-16.3,5a8.8,8.8,0,0,0-3.23,6.29,7.36,7.36,0,0,0,1.48,5.48,6.19,6.19,0,0,0,5.12,2.24,13.51,13.51,0,0,0,7.08-2,14.88,14.88,0,0,0,5.32-5.25,43.75,43.75,0,0,0,3.8-10.06Zm-13.66-17.31L332,1172.72a31.31,31.31,0,0,1,10.79-14.42c4.81-3.46,10.9-5.23,18.24-5.23,7.68,0,13.19,1.81,16.49,5.38a16,16,0,0,1,4.25,13.09,46.64,46.64,0,0,1-1.12,6.63q-.79,3.54-5.09,18.47-3.53,12.34-4,17.29a40.18,40.18,0,0,0,.41,9.82H356.3a40,40,0,0,1-.44-7.81,28.69,28.69,0,0,1-8.8,7,20.81,20.81,0,0,1-9.49,2.45,14,14,0,0,1-11.71-5.62c-2.85-3.75-4-8.56-3.4-14.47q.92-9.88,6.78-15.79c3.92-4,10.47-6.32,19.63-7.16q11.61-1.08,15.62-2.65a29.37,29.37,0,0,0,1.63-6.25,6.19,6.19,0,0,0-1.62-5q-1.87-2-6-2a11.22,11.22,0,0,0-7,2,11.71,11.71,0,0,0-3.95,5.8m-81.31,49.48H250.14l26.36-95.3h16.08l-9.4,33.93a47.42,47.42,0,0,1,10.82-7.1,25,25,0,0,1,10.33-2.21c4.8,0,8.49,1.63,11,4.83s3.5,7.41,3,12.62a84,84,0,0,1-2.8,12.86l-11.17,40.37H288.24l11.39-41.15a66,66,0,0,0,2-8.58,7.41,7.41,0,0,0-1.32-5.52,5.76,5.76,0,0,0-4.83-2.08,12.86,12.86,0,0,0-8.06,3.25,31.69,31.69,0,0,0-8.37,10.53q-1.73,3.46-5.24,16.19Zm-36.34-34.33,16.77,3q-6.52,16-17.32,24.54a38.13,38.13,0,0,1-24.21,8.47q-15.09,0-22.58-10.52T177,1184.37a80.13,80.13,0,0,1,8.57-29.76c4.64-9,10.58-15.86,17.73-20.64a40.53,40.53,0,0,1,22.69-7.13c8.91,0,15.85,2.74,20.8,8.27s7.49,13.07,7.56,22.59l-16.4,1.82c-.37-5.54-1.71-9.57-4-12s-5.61-3.72-9.89-3.72a22.39,22.39,0,0,0-13.58,4.92q-6.55,5-11.2,15.43a67.2,67.2,0,0,0-5.65,21c-.74,7.62.29,13.52,3.05,17.69a12.84,12.84,0,0,0,11.21,6.22,19.22,19.22,0,0,0,12.49-4.94c4-3.28,7.19-8.16,9.57-14.63"/><path class="cls-3" d="M957.34,1154.73h16l.73,34.37c.17,8.83.13,15-.09,18.58a180,180,0,0,1,10.78-22.33l17.17-30.62h17.07L975,1230.51a117.53,117.53,0,0,1-8.44,13.19,22.52,22.52,0,0,1-6.83,5.93,18.52,18.52,0,0,1-9,2.14,36.12,36.12,0,0,1-11.32-2.08l2.73-13.91a17.39,17.39,0,0,0,5.58,1q7.41,0,13.42-13Zm-62.51,0h15.26l-2.43,9a48.27,48.27,0,0,1,11.47-8.17,25.08,25.08,0,0,1,10.71-2.45c4.89,0,8.6,1.66,11.11,4.89s3.51,7.57,3,12.93q-.35,3.67-3.18,13.79L930,1223.75h-16.1l10.81-39.2a103.24,103.24,0,0,0,2.57-10.46,7.52,7.52,0,0,0-1.28-5.62,5.85,5.85,0,0,0-4.88-2c-2.37,0-5.09,1.14-8.17,3.44a26.77,26.77,0,0,0-7.68,9.09c-1.46,2.72-3.31,8.18-5.61,16.46l-7.82,28.34H875.76Zm-42.06,36.85a36.68,36.68,0,0,1-4,.84c-8.16,1.13-13.61,2.77-16.28,5a8.7,8.7,0,0,0-3.23,6.29,7.23,7.23,0,0,0,1.49,5.48,6.12,6.12,0,0,0,5.11,2.24,13.33,13.33,0,0,0,7.05-2,14.67,14.67,0,0,0,5.33-5.25,43.68,43.68,0,0,0,3.81-10.06Zm-13.67-17.31-15.56-1.55a31.2,31.2,0,0,1,10.77-14.42c4.82-3.46,10.91-5.23,18.25-5.23,7.69,0,13.19,1.81,16.5,5.38a16,16,0,0,1,4.24,13.09,51.22,51.22,0,0,1-1.11,6.63q-.8,3.54-5.1,18.47-3.54,12.34-4,17.29a39.11,39.11,0,0,0,.38,9.82H847.83a40.84,40.84,0,0,1-.44-7.81,28.86,28.86,0,0,1-8.78,7,20.83,20.83,0,0,1-9.51,2.45,13.93,13.93,0,0,1-11.69-5.62c-2.84-3.75-4-8.56-3.43-14.47.64-6.59,2.89-11.86,6.81-15.79s10.47-6.32,19.61-7.16c7.76-.72,13-1.61,15.64-2.65a28.64,28.64,0,0,0,1.62-6.25,6.19,6.19,0,0,0-1.62-5c-1.26-1.35-3.23-2-6-2a11.24,11.24,0,0,0-7,2,11.72,11.72,0,0,0-4,5.8m-73.17,20c-.49,5.37.23,9.54,2.19,12.52s4.53,4.42,7.58,4.42a12.59,12.59,0,0,0,8-3.33c2.67-2.23,5.09-5.93,7.19-11.11a50.25,50.25,0,0,0,3.83-14.39q.75-7.76-2.06-11.88a8.81,8.81,0,0,0-7.73-4.12,12.67,12.67,0,0,0-8.74,3.8q-4.17,3.83-7,11.18a52.36,52.36,0,0,0-3.32,12.91M760,1154.73h15.28l-2,7.06a41.86,41.86,0,0,1,9.78-6.69,22.74,22.74,0,0,1,9.35-2c6.25,0,11,2.52,14.33,7.5s4.52,12.41,3.56,22.29q-1.77,18.66-12.83,31.52-9.46,11-21,11c-7.88,0-13.51-3.71-16.81-11.14l-9.88,35.84H733.73Zm-102.15,0H673l-2.32,8.38c6.57-6.68,13.08-10,19.6-10,4.48,0,7.84,1.1,10.07,3.27a13.53,13.53,0,0,1,3.78,9,29.15,29.15,0,0,1,9.72-8.7,24.45,24.45,0,0,1,12.33-3.54c4.75,0,8.31,1.51,10.7,4.45s3.31,6.84,2.84,11.7a83.23,83.23,0,0,1-2.74,12.35l-11.68,42.18H709.22l11.66-42.18c1.43-5.31,2.18-8.28,2.24-9a6.12,6.12,0,0,0-1-4.51,5.18,5.18,0,0,0-4.3-1.66c-4,0-7.84,2.44-11.43,7.33q-3.95,5.28-7.61,18.67l-8.67,31.33H674L685.49,1182a75.52,75.52,0,0,0,2.19-9.35,5.91,5.91,0,0,0-1.17-4.5,5.15,5.15,0,0,0-4.23-1.74,10.77,10.77,0,0,0-5.63,1.82,19.35,19.35,0,0,0-5.38,5,33.73,33.73,0,0,0-4.41,8.18c-.61,1.57-1.67,5.08-3.2,10.59l-8.75,31.73h-16.1Zm-36.47,27q.63-6.62-2.32-10.63a9.7,9.7,0,0,0-8.23-4,14.53,14.53,0,0,0-9.62,3.75,27.92,27.92,0,0,0-7.32,10.85,47.77,47.77,0,0,0-3.51,13.09q-.69,7.43,2.39,11.79a9.63,9.63,0,0,0,8.33,4.34c4.39,0,8.33-2.18,11.72-6.56,4.85-6.2,7.73-13.73,8.56-22.63m-47.16,13.35q1.8-19.21,12.26-30.59a33.41,33.41,0,0,1,25.63-11.44c8.8,0,15.39,2.84,19.79,8.43s6.15,13.17,5.26,22.66a51,51,0,0,1-12,29q-10.43,12.27-26,12.24a26.37,26.37,0,0,1-14.54-3.92,21,21,0,0,1-8.66-11,35.67,35.67,0,0,1-1.71-15.31m-25.11-5.68,16.77,3q-6.54,16-17.33,24.54a38.08,38.08,0,0,1-24.2,8.47q-15.08,0-22.59-10.52t-5.57-30.54a80.3,80.3,0,0,1,8.55-29.76q7-13.47,17.75-20.64a40.53,40.53,0,0,1,22.69-7.13c8.91,0,15.84,2.74,20.82,8.27s7.47,13.07,7.54,22.59l-16.4,1.82c-.36-5.54-1.71-9.57-4-12s-5.63-3.72-9.88-3.72a22.39,22.39,0,0,0-13.59,4.92q-6.55,5-11.18,15.43a66.44,66.44,0,0,0-5.67,21q-1.11,11.43,3.05,17.69a12.86,12.86,0,0,0,11.2,6.22,19.23,19.23,0,0,0,12.5-4.94q6-4.92,9.57-14.63"/><polyline class="cls-4" points="518.08 52.34 981.34 515.62 518.08 979.69 53.99 515.62"/><polyline class="cls-3" points="517.67 68.02 964.29 513.82 517.67 959.6 71.04 513.81"/><polygon class="cls-5" points="71.66 513.5 259.42 325.74 777.16 325.74 963.67 513.5 777.16 701.88 257.56 701.88 71.66 513.5"/><path class="cls-6" d="M750.77,513.73V503h20.49Zm-57.06,29.89V503H717.1v28.37Zm-87.21-51L624,469.71h21.68l17.21,22.88h-18.8L634.4,481l-9,11.55Zm10.33,35.52-21.24-3.57c2.39-8,6.49-13.85,12.31-17.68s14.5-5.76,26-5.76c10.47,0,18.23,1.18,23.35,3.47s8.69,5.22,10.77,8.77,3.13,10,3.13,19.51l-.25,25.44.07-7.81-23,5.41c.11-1.62.16-3.53.16-5.75V545.8c-3,.93-7.75,2-14.26,3.33s-10.72,2.57-12.72,3.79c-.35.23-.67.47-1,.71L600.58,546a23.8,23.8,0,0,1,6.21-4q6.47-2.89,18.62-5.08c10.94-1.9,18.51-3.71,22.73-5.35v-2.18c0-4.19-1.12-7.17-3.33-9s-6.39-2.69-12.57-2.69c-4.19,0-7.43.77-9.76,2.31s-4.2,4.18-5.65,8m-98.36-56.46v41.81q11.32-12.33,27.06-12.36a36.72,36.72,0,0,1,14.57,2.81,23.68,23.68,0,0,1,9.79,7.12,24.9,24.9,0,0,1,4.49,9.64c.82,3.5,1.22,9,1.22,16.37v7.22l-23.76-13.37a22.84,22.84,0,0,0-1-5.49,11.09,11.09,0,0,0-4.73-5.55,15.93,15.93,0,0,0-8.45-2.07,20.31,20.31,0,0,0-10.39,2.65,14.87,14.87,0,0,0-4.59,4.09H495.06V471.65ZM374.36,559.5q-6.56-12.62-6.58-30,0-28.38,15.75-44.09t41.38-15.71q22.38,0,36.39,12.34c5.58,4.85,9.73,11.83,12.52,20.94l-24.43,5.42a23.62,23.62,0,0,0-9-14q-6.89-5.15-16.7-5.13c-9,0-16.42,3-22,9.1s-8.45,15.83-8.45,29.38,2.45,23.37,7.38,29.58ZM237,463.55l11.48-23.21h26.24l-22.92,23.21ZM190.82,583.76l47.54-113.7h26.08l48.92,113.7-16.92-39.33-31.25-12.59,2.75,6.94-16.84-42.2-16.47,42.2,6.5-16.64-21-8.45Z"/><path class="cls-7" d="M752.45,585.35V573a34,34,0,0,1-12.7,10.39,38.08,38.08,0,0,1-16.63,3.79,34.41,34.41,0,0,1-16-3.63,22.27,22.27,0,0,1-10.26-10.24q-3.2-6.6-3.18-18.25V543.62l23.4-12.26v9.46c0,11.59.44,18.68,1.32,21.32a11.53,11.53,0,0,0,4.7,6.18,15.07,15.07,0,0,0,8.65,2.28,19.14,19.14,0,0,0,10.74-3.06A15.84,15.84,0,0,0,749,560q1.75-4.58,1.77-22.24v-24L771.26,503h2.91v82.36ZM671,550.48l-.1,7.81c0,7.23.37,12.58,1.15,16a44.64,44.64,0,0,0,4.2,11.05H653c-.59-1.46-1.36-3.59-2.23-6.44-.36-1.3-.66-2.14-.82-2.56a42.84,42.84,0,0,1-12.84,8.16,39.34,39.34,0,0,1-14.57,2.69c-9.11,0-16.3-2.31-21.52-6.88a23.38,23.38,0,0,1-4.3-29.91,21.49,21.49,0,0,1,3.82-4.41l19.6,7.63a8.64,8.64,0,0,0-3.61,7,10.28,10.28,0,0,0,3.68,7.9,13.27,13.27,0,0,0,9.31,3.35,21.29,21.29,0,0,0,12.1-3.88,13.31,13.31,0,0,0,5.55-7.22,19.6,19.6,0,0,0,.77-4.86Zm-148.26-26a16,16,0,0,0-2.11,3.85q-2.16,5.34-2.15,15.71v41.27H495.07V524.52Zm52.89,19.74v41.09H552.21V541.83c0-4.51-.12-8.15-.38-10.94Zm-125.34-.71,23.87,7q-5.49,18.63-18.28,27.66c-8.5,6-19.35,9-32.45,9q-24.28,0-40-15.45a49.28,49.28,0,0,1-9.08-12.32l26.21-2.12a12.75,12.75,0,0,0,1,1.12c5.52,6.12,12.75,9.16,21.62,9.16a25.71,25.71,0,0,0,16.92-5.82c4.71-3.86,8.09-10,10.19-18.29m-136.9,40.21H286.52l-10.67-25.83H227L217,583.76H190.81l29.33-70.07,21,8.45-6.5,16.64H268l-2.78-6.94,31.28,12.59Z"/><path class="cls-2" d="M821.87,498.94a28.61,28.61,0,1,1,28.62-28.61,28.64,28.64,0,0,1-28.62,28.61m0-51.91a23.29,23.29,0,1,0,23.29,23.3A23.34,23.34,0,0,0,821.87,447"/><path class="cls-2" d="M816.28,468.09h4.35a23.26,23.26,0,0,0,5.29-.35,3.14,3.14,0,0,0,1.65-1.25,3.65,3.65,0,0,0,.59-2.17,3.42,3.42,0,0,0-.78-2.37,3.46,3.46,0,0,0-2.21-1.14c-.48-.06-1.91-.1-4.3-.1h-4.59Zm-5.87,16.8V455.77h12.37a20.46,20.46,0,0,1,6.78.81,6.63,6.63,0,0,1,3.39,2.77,8.32,8.32,0,0,1,1.26,4.58,7.72,7.72,0,0,1-1.92,5.42,9.19,9.19,0,0,1-5.75,2.7,13.48,13.48,0,0,1,3.16,2.44,35.85,35.85,0,0,1,3.33,4.72l3.57,5.68h-7l-4.25-6.33a42.19,42.19,0,0,0-3.11-4.28,4.2,4.2,0,0,0-1.77-1.21,9.54,9.54,0,0,0-3-.33h-1.19v12.15Z"/></svg>